<svg width="70" height="76" fill="none" xmlns="http://www.w3.org/2000/svg"><path d="M26.018 69.115c-4.993-1.422-9.384-4.04-13.218-7.694-1.203.428-2.43.857-3.677 1.263-.58.18-1.16.113-1.761-.113-1.07-.406-1.716-1.195-2.184-2.166-.647-1.286-1.471-2.46-2.118-3.745-.58-1.196-1.426-2.234-1.917-3.475-.245-.61-.891-1.015-.891-1.782-.58-.948-.023-1.783.312-2.618.089-.225.2-.519.401-.609.802-.361 1.204-1.173 1.872-1.67.312-.225.647-.474 1.003-.744-.512-2.595-.958-5.19-.958-7.852 0-2.64.468-5.19.958-7.717-.869-.812-1.671-1.602-2.518-2.346-.87-.768-1.382-1.715-1.27-2.708.066-.541.222-1.128.49-1.58.824-1.33 1.582-2.73 2.384-4.083.647-1.083 1.204-2.212 1.917-3.272.38-.542.602-1.173.981-1.737.735-1.06 2.207-1.58 3.41-1.219 1.07.316 2.073.79 3.165.993.112.023.2.18.312.293 3.856-3.632 8.247-6.227 13.284-7.739.2-.61.245-1.263.49-1.895.179-.474.134-1.06.224-1.58.245-1.353 1.07-2.143 2.25-2.55.424-.135.848-.27 1.36-.27 3.12.045 6.241.045 9.362 0 .891 0 1.649.361 2.362.767.647.339 1.003 1.06 1.182 1.738.312 1.24.49 2.504.735 3.813 5.015 1.444 9.406 4.039 13.24 7.694a140.41 140.41 0 0 1 3.677-1.264c.58-.18 1.16-.113 1.761.113 1.07.406 1.716 1.196 2.184 2.166.647 1.286 1.471 2.46 2.118 3.746.58 1.195 1.426 2.233 1.917 3.474.245.61.891 1.016.891 1.783.58.947.022 1.782-.312 2.617-.089.226-.2.52-.401.61-.802.36-1.204 1.173-1.872 1.669-.312.226-.647.474-1.003.745.512 2.594.958 5.19.958 7.852 0 2.64-.401 5.19-.958 7.716.869.812 1.671 1.602 2.518 2.347.87.767 1.382 1.715 1.27 2.707-.066.542-.2 1.129-.49 1.58-.802 1.308-1.56 2.662-2.34 3.993-.98 1.648-1.783 3.43-2.92 4.987-.2.857-1.003.925-1.582 1.24-.624.34-1.248.25-1.94.046-1.025-.293-2.005-.812-3.075-.948-.112-.022-.2-.18-.312-.293-3.856 3.678-8.225 6.295-13.329 7.762-.245 1.218-.468 2.482-.735 3.723-.268 1.218-1.07 1.985-2.207 2.346-.424.136-.87.271-1.36.271-3.12-.045-6.24-.045-9.36 0-.892 0-1.65-.361-2.363-.767-.647-.339-1.026-1.06-1.16-1.737-.245-1.332-.49-2.573-.757-3.881Zm1.448-19.878c.446-.249.959-.407.981-.948.045-.813.156-1.647-.022-2.415-.312-1.308-.87-2.572-1.204-3.88-.223-.835-.713-1.625-.69-2.527-.714-1.783-1.16-3.656-1.762-5.46-.49-1.49-.846-3.024-1.381-4.49-.29-.813-.357-1.716-.892-2.438-.045-.067-.067-.112-.067-.112-.602-.406-1.226-.271-1.76-.271-.313.293-.58.541-.825.767-.023.722-.535 1.286-.446 1.986-.78 1.76-1.115 3.655-1.761 5.46-.334.925-.535 1.873-.802 2.82-.245.948-.78 1.805-.78 2.82-.848 1.919-1.27 3.972-1.895 5.98-.156.496-.245.97.067 1.444.089.135.044.338.044.316.357.383.624.654.847.925h1.338c.312-.406.624-.79.914-1.173-.067-1.286.2-2.144.78-3.52h6.553c.178.722.267 1.421.512 2.076.112.27.223.541.178.812-.066.835.201 1.489 1.137 1.805.223.023.557.023.936.023Zm5.216 0c.602-.046 1.293.135 1.783-.361.178-.226.334-.452.557-.768v-6.994c1.627 0 3.232-.068 4.815.022.958.045 1.738-.248 2.496-.722.357-.225.669-.564.98-.88.825-.812 1.227-1.805 1.249-2.978v-5.528c0-.27-.067-.564-.134-.835-.245-.97-.758-1.692-1.449-2.324-.802-.744-1.738-1.196-2.853-1.196h-7.489c-.245.271-.49.542-.78.813v20.96c.29.249.557.52.825.79Zm16.048 0h4.636c.267-.271.535-.542.802-.79v-1.354c-.334-.632-.847-1.015-1.515-1.083V29.99c.49-.248.914-.474 1.404-.744.067-.587.111-1.196.156-1.625-.357-.406-.602-.7-.802-.925h-4.547c-.38.338-.647.586-.981.902.067.542.156 1.151.223 1.67.535.27.958.496 1.337.7v16.064c-.223.046-.468 0-.557.113-.312.316-.847.406-.959.925v1.354l.803.813Z" fill="#a2d2a4"/><path d="M23.521 41.068c-1.315.045-2.697.068-4.079.113-.044 0-.111.09-.245.203.023-1.399.803-2.527.892-3.813.669-1.128.735-2.46 1.181-3.723.134.136.335.27.335.384.022.97.579 1.805.757 2.73.134.632.49 1.24.58 1.872.089.813.624 1.422.58 2.234ZM41.464 36.692c-.156.248-.29.496-.468.722-.312.36-.713.564-1.226.541-1.56-.022-3.12 0-4.725 0v-8.122c1.627 0 3.299-.023 4.948 0 .78.022 1.449.834 1.471 1.692v5.167Z" fill="#a2d2a4"/></svg>