<svg version="1.0" xmlns="http://www.w3.org/2000/svg" width="345.333" height="345.333" viewBox="0 0 259 259"><path d="M114.5 6.7c-44 5.5-81 32.3-99.9 72.4-15.9 33.6-15.4 74.6 1.2 108.4 6.6 13.3 13.7 23.1 24.6 34.1 10.7 10.6 20.9 17.8 35.3 24.6 12.1 5.8 17.4 6.9 20.3 4.3 1.8-1.6 2-3.1 2-15.5v-13.7l-5.7.8c-7.4 1-20.2-.5-25-3-5.5-2.8-8.6-6.5-12.9-15.5-3.1-6.2-5.2-9.1-10.6-13.9-3.7-3.3-6.8-6.3-6.8-6.8 0-1.2 4.1-1.5 8.4-.6 5.5 1.1 11.8 5.8 15.5 11.6 4.2 6.4 9.8 11.5 14.6 13.1 4.6 1.5 15.9.9 20-1.1 2.1-1.1 3.2-2.6 4.2-6.4.8-2.8 2.7-6.6 4.3-8.6l2.9-3.6-7.6-1.3c-32.9-5.3-49.2-24.5-49.6-58.5-.1-13.1 2.1-21 8.4-30 3.7-5.3 3.9-5.9 2.9-9.3-1.5-5.5-1.2-18.1.5-24l1.6-5.2h4.2c4.8 0 18.4 5.3 25.5 9.9l4.7 3 6.5-1.7c9.1-2.3 40.8-2.3 49.9 0l6.5 1.6 7.5-4.4c8.9-5.1 17.9-8.4 23.1-8.4 3.7 0 3.8.1 5.4 5.8 1.8 6.6 2.1 17.9.6 23.4-1 3.4-.8 4 2.9 9.3 6.3 9 8.5 16.9 8.4 30-.3 19.1-5.5 33.7-15.7 43.3-8.5 8-21.7 13.6-37 15.7l-4.8.7 2 2.1c1.2 1.2 3.1 4.5 4.4 7.2 2.1 4.7 2.3 6.6 2.6 28.5.4 25.6.7 27 6.1 27 5.5 0 22.7-8 35.1-16.3 10-6.7 25.2-22.2 32.3-32.8 8.1-12.2 14.4-26.1 17.9-39.7 2.9-10.9 3.1-12.9 3.2-29.7.1-19.5-1.1-27.8-6.1-42.5-10.5-30.6-34.2-57.5-63.8-72.3-9.6-4.8-25-9.5-36.4-11.2-8.7-1.4-26.1-1.8-33.6-.8z"/></svg>