<?xml version="1.0" standalone="no"?>
<!DOCTYPE svg PUBLIC "-//W3C//DTD SVG 20010904//EN"
 "http://www.w3.org/TR/2001/REC-SVG-20010904/DTD/svg10.dtd">
<svg version="1.0" xmlns="http://www.w3.org/2000/svg"
 width="259.000000pt" height="259.000000pt" viewBox="0 0 259.000000 259.000000"
 preserveAspectRatio="xMidYMid meet">

<g transform="translate(0.000000,259.000000) scale(0.100000,-0.100000)"
fill="#000000" stroke="none">
<path d="M1145 2523 c-440 -55 -810 -323 -999 -724 -159 -336 -154 -746 12
-1084 66 -133 137 -231 246 -341 107 -106 209 -178 353 -246 121 -58 174 -69
203 -43 18 16 20 31 20 155 l0 137 -57 -8 c-74 -10 -202 5 -250 30 -55 28 -86
65 -129 155 -31 62 -52 91 -106 139 -37 33 -68 63 -68 68 0 12 41 15 84 6 55
-11 118 -58 155 -116 42 -64 98 -115 146 -131 46 -15 159 -9 200 11 21 11 32
26 42 64 8 28 27 66 43 86 l29 36 -76 13 c-329 53 -492 245 -496 585 -1 131
21 210 84 300 37 53 39 59 29 93 -15 55 -12 181 5 240 l16 52 42 0 c48 0 184
-53 255 -99 l47 -30 65 17 c91 23 408 23 499 0 l65 -16 75 44 c89 51 179 84
231 84 37 0 38 -1 54 -58 18 -66 21 -179 6 -234 -10 -34 -8 -40 29 -93 63 -90
85 -169 84 -300 -3 -191 -55 -337 -157 -433 -85 -80 -217 -136 -370 -157 l-48
-7 20 -21 c12 -12 31 -45 44 -72 21 -47 23 -66 26 -285 4 -256 7 -270 61 -270
55 0 227 80 351 163 100 67 252 222 323 328 81 122 144 261 179 397 29 109 31
129 32 297 1 195 -11 278 -61 425 -105 306 -342 575 -638 723 -96 48 -250 95
-364 112 -87 14 -261 18 -336 8z"/>
</g>
</svg>
